<svg xmlns="http://www.w3.org/2000/svg" width="372" height="220" viewBox="0 0 372 220">
<rect x="0" y="0" width="372" height="220" fill="#fefefe"/>
<rect x="0.0" y="0" width="36.0" height="200.0" fill="#f9fafb" stroke="#d1d5db" stroke-width="0.5" stroke-dasharray="3,2"/>
<text x="18.0" y="100.0" text-anchor="middle" font-size="7" fill="#d1d5db" font-family="sans-serif" transform="rotate(-90 18.0 100.0)">WING</text>
<rect x="336.0" y="0" width="36.0" height="200.0" fill="#f9fafb" stroke="#d1d5db" stroke-width="0.5" stroke-dasharray="3,2"/>
<text x="354.0" y="100.0" text-anchor="middle" font-size="7" fill="#d1d5db" font-family="sans-serif" transform="rotate(-90 354.0 100.0)">WING</text>
<rect x="36.0" y="133.3" width="100.0" height="66.7" fill="none" stroke="#d1d5db" stroke-width="0.5"/>
<text x="86.0" y="169.7" text-anchor="middle" font-size="8" fill="#d1d5db" font-family="sans-serif">DSL</text>
<rect x="136.0" y="133.3" width="100.0" height="66.7" fill="none" stroke="#d1d5db" stroke-width="0.5"/>
<text x="186.0" y="169.7" text-anchor="middle" font-size="8" fill="#d1d5db" font-family="sans-serif">DSC</text>
<rect x="236.0" y="133.3" width="100.0" height="66.7" fill="none" stroke="#d1d5db" stroke-width="0.5"/>
<text x="286.0" y="169.7" text-anchor="middle" font-size="8" fill="#d1d5db" font-family="sans-serif">DSR</text>
<rect x="36.0" y="66.7" width="100.0" height="66.7" fill="none" stroke="#d1d5db" stroke-width="0.5"/>
<text x="86.0" y="103.0" text-anchor="middle" font-size="8" fill="#d1d5db" font-family="sans-serif">CL</text>
<rect x="136.0" y="66.7" width="100.0" height="66.7" fill="none" stroke="#d1d5db" stroke-width="0.5"/>
<text x="186.0" y="103.0" text-anchor="middle" font-size="8" fill="#d1d5db" font-family="sans-serif">C</text>
<rect x="236.0" y="66.7" width="100.0" height="66.7" fill="none" stroke="#d1d5db" stroke-width="0.5"/>
<text x="286.0" y="103.0" text-anchor="middle" font-size="8" fill="#d1d5db" font-family="sans-serif">CR</text>
<rect x="36.0" y="0.0" width="100.0" height="66.7" fill="none" stroke="#d1d5db" stroke-width="0.5"/>
<text x="86.0" y="36.3" text-anchor="middle" font-size="8" fill="#d1d5db" font-family="sans-serif">USL</text>
<rect x="136.0" y="0.0" width="100.0" height="66.7" fill="none" stroke="#d1d5db" stroke-width="0.5"/>
<text x="186.0" y="36.3" text-anchor="middle" font-size="8" fill="#d1d5db" font-family="sans-serif">USC</text>
<rect x="236.0" y="0.0" width="100.0" height="66.7" fill="none" stroke="#d1d5db" stroke-width="0.5"/>
<text x="286.0" y="36.3" text-anchor="middle" font-size="8" fill="#d1d5db" font-family="sans-serif">USR</text>
<line x1="181.0" y1="100.0" x2="191.0" y2="100.0" stroke="#9ca3af" stroke-width="0.8"/><line x1="186.0" y1="95.0" x2="186.0" y2="105.0" stroke="#9ca3af" stroke-width="0.8"/>
<rect x="36.0" y="200.0" width="300" height="20" fill="#f3f4f6" stroke="#d1d5db" stroke-width="0.5"/>
<text x="186.0" y="214.0" text-anchor="middle" font-size="9" fill="#6b7280" font-family="sans-serif">AUDIENCE</text>
<path d="M 86.0 33.3 Q 106.0 46.7 86.0 100.0" fill="none" stroke="#111827" stroke-width="1" stroke-dasharray="4,3"/>
<circle cx="86.0" cy="33.3" r="5" fill="white" stroke="#111827" stroke-width="1.5"/>
<line x1="86.0" y1="33.3" x2="86.0" y2="43.3" stroke="#111827" stroke-width="1.5"/>
<polygon points="86.0,43.3 88.4,40.1 83.6,40.1" fill="#111827"/>
<circle cx="86.0" cy="100.0" r="5" fill="white" stroke="#111827" stroke-width="1.5"/>
<line x1="86.0" y1="100.0" x2="93.1" y2="107.1" stroke="#111827" stroke-width="1.5"/>
<polygon points="93.1,107.1 92.4,103.1 89.1,106.4" fill="#111827"/>
<line x1="186.0" y1="33.3" x2="186.0" y2="100.0" stroke="#2563eb" stroke-width="1" stroke-dasharray="4,3"/>
<circle cx="186.0" cy="33.3" r="5" fill="white" stroke="#2563eb" stroke-width="1.5"/>
<line x1="186.0" y1="33.3" x2="186.0" y2="43.3" stroke="#2563eb" stroke-width="1.5"/>
<polygon points="186.0,43.3 188.4,40.1 183.6,40.1" fill="#2563eb"/>
<circle cx="186.0" cy="100.0" r="5" fill="white" stroke="#2563eb" stroke-width="1.5"/>
<line x1="186.0" y1="100.0" x2="186.0" y2="110.0" stroke="#2563eb" stroke-width="1.5"/>
<polygon points="186.0,110.0 188.4,106.8 183.6,106.8" fill="#2563eb"/>
<path d="M 286.0 33.3 Q 306.0 46.7 286.0 100.0" fill="none" stroke="#dc2626" stroke-width="1" stroke-dasharray="4,3"/>
<circle cx="286.0" cy="33.3" r="5" fill="white" stroke="#dc2626" stroke-width="1.5"/>
<line x1="286.0" y1="33.3" x2="286.0" y2="43.3" stroke="#dc2626" stroke-width="1.5"/>
<polygon points="286.0,43.3 288.4,40.1 283.6,40.1" fill="#dc2626"/>
<circle cx="286.0" cy="100.0" r="5" fill="white" stroke="#dc2626" stroke-width="1.5"/>
<line x1="286.0" y1="100.0" x2="278.9" y2="107.1" stroke="#dc2626" stroke-width="1.5"/>
<polygon points="278.9,107.1 282.9,106.4 279.6,103.1" fill="#dc2626"/>
</svg>