<svg xmlns="http://www.w3.org/2000/svg" width="1888" height="742" viewBox="0 0 1888 742">
<rect x="0" y="0" width="1888" height="742" fill="#f8fafc"/>
<defs>
  <pattern id="level-middle-fill" patternUnits="userSpaceOnUse" width="8" height="8">
    <rect width="8" height="8" fill="#ffffff"/>
    <rect width="8" height="4" fill="#8f9bb3"/>
  </pattern>
</defs>
<text x="28" y="34" font-size="24" font-weight="700" fill="#111827">Golden Official Families</text>
<text x="28" y="56" font-size="11" fill="#6b7280">Laban staff engraving preview</text>
<g class="staff-system" data-system="1" data-measures="1-2">
<rect x="113.0" y="112" width="1757.0" height="604" fill="#ffffff" stroke="#d0d7de" stroke-width="1"/>
</g>
<rect x="113.0" y="126.0" width="1757.0" height="288.0" fill="#fbfdff"/>
<line x1="113.0" y1="126.0" x2="1870.0" y2="126.0" stroke="#94a3b8" stroke-width="1.4"/>
<text x="117.0" y="142.0" text-anchor="end" font-size="10" fill="#64748b">M1</text>
<line x1="113.0" y1="198.0" x2="1870.0" y2="198.0" stroke="#cbd5e1" stroke-width="1" stroke-dasharray="4 4"/>
<text x="117.0" y="202.0" text-anchor="end" font-size="9" fill="#94a3b8">2</text>
<line x1="113.0" y1="270.0" x2="1870.0" y2="270.0" stroke="#cbd5e1" stroke-width="1" stroke-dasharray="4 4"/>
<text x="117.0" y="274.0" text-anchor="end" font-size="9" fill="#94a3b8">3</text>
<line x1="113.0" y1="342.0" x2="1870.0" y2="342.0" stroke="#cbd5e1" stroke-width="1" stroke-dasharray="4 4"/>
<text x="117.0" y="346.0" text-anchor="end" font-size="9" fill="#94a3b8">4</text>
<line x1="113.0" y1="414.0" x2="1801.6" y2="414.0" stroke="#94a3b8" stroke-width="1.4"/>
<text x="117.0" y="430.0" text-anchor="end" font-size="10" fill="#64748b">M2</text>
<line x1="113.0" y1="486.0" x2="1801.6" y2="486.0" stroke="#cbd5e1" stroke-width="1" stroke-dasharray="4 4"/>
<text x="117.0" y="490.0" text-anchor="end" font-size="9" fill="#94a3b8">2</text>
<line x1="113.0" y1="558.0" x2="1801.6" y2="558.0" stroke="#cbd5e1" stroke-width="1" stroke-dasharray="4 4"/>
<text x="117.0" y="562.0" text-anchor="end" font-size="9" fill="#94a3b8">3</text>
<line x1="113.0" y1="630.0" x2="1801.6" y2="630.0" stroke="#cbd5e1" stroke-width="1" stroke-dasharray="4 4"/>
<text x="117.0" y="634.0" text-anchor="end" font-size="9" fill="#94a3b8">4</text>
<line x1="113.0" y1="702.0" x2="1870.0" y2="702.0" stroke="#94a3b8" stroke-width="1.4"/>
<line x1="149.0" y1="112" x2="149.0" y2="716" stroke="#e5e7eb" stroke-width="1"/>
<text x="149.0" y="104.0" text-anchor="middle" font-size="9" fill="#475569">Left Arm</text>
<line x1="201.0" y1="112" x2="201.0" y2="716" stroke="#e5e7eb" stroke-width="1"/>
<text x="201.0" y="104.0" text-anchor="middle" font-size="9" fill="#475569">Left Leg</text>
<line x1="253.0" y1="112" x2="253.0" y2="716" stroke="#e5e7eb" stroke-width="1"/>
<text x="253.0" y="104.0" text-anchor="middle" font-size="9" fill="#475569">Torso</text>
<line x1="305.0" y1="112" x2="305.0" y2="716" stroke="#e5e7eb" stroke-width="1"/>
<text x="305.0" y="104.0" text-anchor="middle" font-size="9" fill="#475569">Right Leg</text>
<line x1="357.0" y1="112" x2="357.0" y2="716" stroke="#e5e7eb" stroke-width="1"/>
<text x="357.0" y="104.0" text-anchor="middle" font-size="9" fill="#475569">Right Arm</text>
<line x1="409.0" y1="112" x2="409.0" y2="716" stroke="#e5e7eb" stroke-width="1"/>
<text x="409.0" y="104.0" text-anchor="middle" font-size="9" fill="#475569">Support</text>
<line x1="461.0" y1="112" x2="461.0" y2="716" stroke="#e5e7eb" stroke-width="1"/>
<text x="461.0" y="104.0" text-anchor="middle" font-size="9" fill="#475569">Direction</text>
<line x1="513.0" y1="112" x2="513.0" y2="716" stroke="#e5e7eb" stroke-width="1"/>
<text x="513.0" y="104.0" text-anchor="middle" font-size="9" fill="#475569">Path</text>
<line x1="565.0" y1="112" x2="565.0" y2="716" stroke="#e5e7eb" stroke-width="1"/>
<text x="565.0" y="104.0" text-anchor="middle" font-size="9" fill="#475569">Bow</text>
<line x1="617.0" y1="112" x2="617.0" y2="716" stroke="#e5e7eb" stroke-width="1"/>
<text x="617.0" y="104.0" text-anchor="middle" font-size="9" fill="#475569">Pin</text>
<line x1="669.0" y1="112" x2="669.0" y2="716" stroke="#e5e7eb" stroke-width="1"/>
<text x="669.0" y="104.0" text-anchor="middle" font-size="9" fill="#475569">Gesture</text>
<line x1="721.0" y1="112" x2="721.0" y2="716" stroke="#e5e7eb" stroke-width="1"/>
<text x="721.0" y="104.0" text-anchor="middle" font-size="9" fill="#475569">Body</text>
<line x1="773.0" y1="112" x2="773.0" y2="716" stroke="#e5e7eb" stroke-width="1"/>
<text x="773.0" y="104.0" text-anchor="middle" font-size="9" fill="#475569">Flexion</text>
<line x1="825.0" y1="112" x2="825.0" y2="716" stroke="#e5e7eb" stroke-width="1"/>
<text x="825.0" y="104.0" text-anchor="middle" font-size="9" fill="#475569">Foothook</text>
<line x1="877.0" y1="112" x2="877.0" y2="716" stroke="#e5e7eb" stroke-width="1"/>
<text x="877.0" y="104.0" text-anchor="middle" font-size="9" fill="#475569">Digit</text>
<line x1="929.0" y1="112" x2="929.0" y2="716" stroke="#e5e7eb" stroke-width="1"/>
<text x="929.0" y="104.0" text-anchor="middle" font-size="9" fill="#475569">Turn</text>
<line x1="981.0" y1="112" x2="981.0" y2="716" stroke="#e5e7eb" stroke-width="1"/>
<text x="981.0" y="104.0" text-anchor="middle" font-size="9" fill="#475569">Travel</text>
<line x1="1033.0" y1="112" x2="1033.0" y2="716" stroke="#e5e7eb" stroke-width="1"/>
<text x="1033.0" y="104.0" text-anchor="middle" font-size="9" fill="#475569">Jump</text>
<line x1="1085.0" y1="112" x2="1085.0" y2="716" stroke="#e5e7eb" stroke-width="1"/>
<text x="1085.0" y="104.0" text-anchor="middle" font-size="9" fill="#475569">Floor</text>
<line x1="1137.0" y1="112" x2="1137.0" y2="716" stroke="#e5e7eb" stroke-width="1"/>
<text x="1137.0" y="104.0" text-anchor="middle" font-size="9" fill="#475569">Repeat</text>
<line x1="1189.0" y1="112" x2="1189.0" y2="716" stroke="#e5e7eb" stroke-width="1"/>
<text x="1189.0" y="104.0" text-anchor="middle" font-size="9" fill="#475569">Dynamic</text>
<line x1="1241.0" y1="112" x2="1241.0" y2="716" stroke="#e5e7eb" stroke-width="1"/>
<text x="1241.0" y="104.0" text-anchor="middle" font-size="9" fill="#475569">Adlib</text>
<line x1="1293.0" y1="112" x2="1293.0" y2="716" stroke="#e5e7eb" stroke-width="1"/>
<text x="1293.0" y="104.0" text-anchor="middle" font-size="9" fill="#475569">Music</text>
<line x1="1345.0" y1="112" x2="1345.0" y2="716" stroke="#e5e7eb" stroke-width="1"/>
<text x="1345.0" y="104.0" text-anchor="middle" font-size="9" fill="#475569">Motif</text>
<line x1="1397.0" y1="112" x2="1397.0" y2="716" stroke="#e5e7eb" stroke-width="1"/>
<text x="1397.0" y="104.0" text-anchor="middle" font-size="9" fill="#475569">Surface</text>
<line x1="1449.0" y1="112" x2="1449.0" y2="716" stroke="#e5e7eb" stroke-width="1"/>
<text x="1449.0" y="104.0" text-anchor="middle" font-size="9" fill="#475569">Space</text>
<line x1="1501.0" y1="112" x2="1501.0" y2="716" stroke="#e5e7eb" stroke-width="1"/>
<text x="1501.0" y="104.0" text-anchor="middle" font-size="9" fill="#475569">Separator</text>
<line x1="1553.0" y1="112" x2="1553.0" y2="716" stroke="#e5e7eb" stroke-width="1"/>
<text x="1553.0" y="104.0" text-anchor="middle" font-size="9" fill="#475569">Quality</text>
<line x1="1605.0" y1="112" x2="1605.0" y2="716" stroke="#e5e7eb" stroke-width="1"/>
<text x="1605.0" y="104.0" text-anchor="middle" font-size="9" fill="#475569">Level</text>
<line x1="1657.0" y1="112" x2="1657.0" y2="716" stroke="#e5e7eb" stroke-width="1"/>
<text x="1657.0" y="104.0" text-anchor="middle" font-size="9" fill="#475569">Timing</text>
<g class="symbol-block level-middle" data-symbol-id="repeat.start">
<rect x="1120.0" y="132.0" width="34.0" height="60.0" rx="4" ry="4" fill="url(#level-middle-fill)" stroke="#1f2933" stroke-width="1.4"/>

<line x1="-10" y1="36.0" x2="10" y2="36.0" stroke="#dfe4ea" stroke-width="1" stroke-dasharray="3 3"/>
<g class="specialized-repeat" data-kind="start" data-repeat-count="1"><line x1="1122.0" y1="134.0" x2="1122.0" y2="190.0" stroke="#111827" stroke-width="2.0"/><line x1="1126.0" y1="136.0" x2="1126.0" y2="188.0" stroke="#111827" stroke-width="1.2"/><circle cx="1137.0" cy="148.8" r="2.4" fill="#111827"/></g>

<text x="1137.0" y="204.0" text-anchor="middle" class="symbol-id" font-size="8" fill="#4b5563">repeat.start</text>
<text x="1137.0" y="126.0" text-anchor="middle" class="body-label" font-size="8" fill="#6b7280">torso</text>
<text x="1137.0" y="145.0" text-anchor="middle" class="direction-mark" font-size="10" fill="#6b7280">▲</text>
</g>
<g class="symbol-block level-middle" data-symbol-id="path.spiral">
<rect x="496.0" y="132.0" width="34.0" height="60.0" rx="4" ry="4" fill="url(#level-middle-fill)" stroke="#1f2933" stroke-width="1.4"/>
<rect x="500.0" y="136.0" width="26.0" height="52.0" rx="3" ry="3" fill="none" stroke="#94a3b8" stroke-width="0.9"/>
<line x1="-10" y1="36.0" x2="10" y2="36.0" stroke="#dfe4ea" stroke-width="1" stroke-dasharray="3 3"/>
<g class="specialized-path" data-shape="spiral" data-subclass="spiral" data-cap-shape="spiral" data-transition-mark="loop-arrow" data-direction="left" data-mirrored="true"><path d="M 513.0 192.0 C 540.0 178.8, 536.0 145.2, 513.0 145.2 S 488.0 175.2, 513.0 158.4" fill="none" stroke="#cbd5e1" stroke-width="3.4"/><path d="M 513.0 192.0 C 540.0 178.8, 536.0 145.2, 513.0 145.2 S 488.0 175.2, 513.0 158.4" fill="none" stroke="#111827" stroke-width="1.8"/><polygon points="506.0,158.4 512.0,156.0 511.0,162.0" fill="#111827"/></g>

<text x="513.0" y="204.0" text-anchor="middle" class="symbol-id" font-size="8" fill="#4b5563">path.spiral</text>
<text x="513.0" y="126.0" text-anchor="middle" class="body-label" font-size="8" fill="#6b7280">torso</text>
<text x="513.0" y="145.0" text-anchor="middle" class="direction-mark" font-size="10" fill="#6b7280">◀</text>
</g>
<g class="symbol-block level-middle" data-symbol-id="jump.spring">
<rect x="1016.0" y="204.0" width="34.0" height="60.0" rx="4" ry="4" fill="url(#level-middle-fill)" stroke="#1f2933" stroke-width="1.4"/>

<line x1="-10" y1="36.0" x2="10" y2="36.0" stroke="#dfe4ea" stroke-width="1" stroke-dasharray="3 3"/>
<g class="specialized-jump" data-variant="compact" data-subclass="spring"><path d="M 1018.0 260.0 Q 1033.0 196.0 1048.0 260.0" fill="none" stroke="#111827" stroke-width="1.8"/><path d="M 1022.0 252.0 Q 1033.0 206.0 1044.0 252.0" fill="none" stroke="#64748b" stroke-width="1.1" stroke-dasharray="4 3"/><line x1="1013.0" y1="258.0" x2="1020.0" y2="252.0" stroke="#111827" stroke-width="1.2"/><path d="M 1025.0 264.0 q 3 -6 6 0 q 3 6 6 0 q 3 -6 6 0" fill="none" stroke="#64748b" stroke-width="1.2"/><line x1="1033.0" y1="210.0" x2="1033.0" y2="252.0" stroke="#111827" stroke-width="1.2"/><line x1="1045.0" y1="257.0" x2="1053.0" y2="251.0" stroke="#111827" stroke-width="1.2"/></g>

<text x="1033.0" y="276.0" text-anchor="middle" class="symbol-id" font-size="8" fill="#4b5563">jump.spring</text>
<text x="1033.0" y="198.0" text-anchor="middle" class="body-label" font-size="8" fill="#6b7280">left leg</text>
<text x="1033.0" y="217.0" text-anchor="middle" class="direction-mark" font-size="10" fill="#6b7280">▲</text>
</g>
<g class="symbol-block level-middle" data-symbol-id="surface.glide">
<rect x="1380.0" y="204.0" width="34.0" height="60.0" rx="4" ry="4" fill="url(#level-middle-fill)" stroke="#1f2933" stroke-width="1.4"/>

<line x1="-10" y1="36.0" x2="10" y2="36.0" stroke="#dfe4ea" stroke-width="1" stroke-dasharray="3 3"/>
<g class="specialized-surface" data-kind="glide" data-direction="forward" data-mirrored="false"><path d="M 1382.0 234.0 Q 1402.0 226.0 1412.0 234.0" fill="none" stroke="#111827" stroke-width="1.6"/><line x1="1384.0" y1="237.0" x2="1410.0" y2="237.0" stroke="#111827" stroke-width="1.2"/></g>

<text x="1397.0" y="276.0" text-anchor="middle" class="symbol-id" font-size="8" fill="#4b5563">surface.glide</text>
<text x="1419.0" y="218.0" class="adjacent-mark" font-size="14" fill="#374151">▲</text>
<text x="1419.0" y="258.0" class="adjacent-mark" font-size="8" fill="#6b7280">Middle</text>
</g>
<g class="symbol-block level-high" data-symbol-id="motif.rise_fall">
<rect x="1328.0" y="276.0" width="34.0" height="60.0" rx="4" ry="4" fill="#ffffff" stroke="#1f2933" stroke-width="1.4"/>

<line x1="-10" y1="36.0" x2="10" y2="36.0" stroke="#dfe4ea" stroke-width="1" stroke-dasharray="3 3"/>
<g class="specialized-motif" data-kind="rise-fall" data-direction="left" data-mirrored="true" transform="rotate(0.0 1345.0 306.0)"><path d="M 1339.0 333.0 Q 1341.0 280.0 1345.0 306.0 Q 1345.0 330.0 1351.0 281.0" fill="none" stroke="#111827" stroke-width="1.7"/></g>

<text x="1345.0" y="348.0" text-anchor="middle" class="symbol-id" font-size="8" fill="#4b5563">motif.rise_fall</text>
<text x="1345.0" y="270.0" text-anchor="middle" class="body-label" font-size="8" fill="#6b7280">right arm</text>
<text x="1345.0" y="289.0" text-anchor="middle" class="direction-mark" font-size="10" fill="#6b7280">◀</text>
</g>
<g class="symbol-block level-middle" data-symbol-id="space.whitespace">
<rect x="1432.0" y="420.0" width="34.0" height="60.0" rx="4" ry="4" fill="url(#level-middle-fill)" stroke="#1f2933" stroke-width="1.4"/>

<line x1="-10" y1="36.0" x2="10" y2="36.0" stroke="#dfe4ea" stroke-width="1" stroke-dasharray="3 3"/>
<g class="specialized-space" data-kind="whitespace" data-stretch-mode="cap-body-cap"><rect x="1436.0" y="426.0" width="39.6" height="48.0" fill="#ffffff" stroke="#94a3b8" stroke-width="1.2" stroke-dasharray="3 3"/><line x1="1436.0" y1="450.0" x2="1475.6" y2="450.0" stroke="#cbd5e1" stroke-width="1.0" stroke-dasharray="4 3"/></g>

<text x="1449.0" y="492.0" text-anchor="middle" class="symbol-id" font-size="8" fill="#4b5563">space.whitespace</text>
<text x="1449.0" y="414.0" text-anchor="middle" class="body-label" font-size="8" fill="#6b7280">torso</text>
<text x="1449.0" y="433.0" text-anchor="middle" class="direction-mark" font-size="10" fill="#6b7280">▲</text>
</g>
<g class="symbol-block level-middle" data-symbol-id="separator.hook">
<rect x="1484.0" y="492.0" width="34.0" height="60.0" rx="4" ry="4" fill="url(#level-middle-fill)" stroke="#1f2933" stroke-width="1.4"/>

<line x1="-10" y1="36.0" x2="10" y2="36.0" stroke="#dfe4ea" stroke-width="1" stroke-dasharray="3 3"/>
<g class="specialized-separator" data-flipped="false" data-mode="hook"><line x1="1501.0" y1="492.0" x2="1501.0" y2="544.0" stroke="#111827" stroke-width="2.0"/><path d="M 1501.0 544.0 Q 1501.0 552.0 1510.0 550.0" fill="none" stroke="#111827" stroke-width="1.4"/></g>

<text x="1501.0" y="564.0" text-anchor="middle" class="symbol-id" font-size="8" fill="#4b5563">separator.hook</text>
<text x="1501.0" y="486.0" text-anchor="middle" class="body-label" font-size="8" fill="#6b7280">torso</text>
<text x="1501.0" y="505.0" text-anchor="middle" class="direction-mark" font-size="10" fill="#6b7280">▲</text>
</g>
<g class="symbol-block level-middle" data-symbol-id="bow.hook">
<rect x="548.0" y="564.0" width="34.0" height="60.0" rx="4" ry="4" fill="url(#level-middle-fill)" stroke="#1f2933" stroke-width="1.4"/>

<line x1="-10" y1="36.0" x2="10" y2="36.0" stroke="#dfe4ea" stroke-width="1" stroke-dasharray="3 3"/>
<g class="specialized-bow" data-kind="hook"><path d="M 551.0 594.0 Q 565.0 567.0 577.0 594.0" fill="none" stroke="#111827" stroke-width="1.7"/><path d="M 577.0 594.0 Q 583.0 598.0 578.0 622.0" fill="none" stroke="#111827" stroke-width="1.4"/></g>

<text x="565.0" y="636.0" text-anchor="middle" class="symbol-id" font-size="8" fill="#4b5563">bow.hook</text>
<text x="587.0" y="578.0" class="adjacent-mark" font-size="14" fill="#374151">▲</text>
<text x="587.0" y="618.0" class="adjacent-mark" font-size="8" fill="#6b7280">Middle</text>
</g>
<g class="symbol-block level-middle" data-symbol-id="repeat.end">
<rect x="1120.0" y="564.0" width="34.0" height="60.0" rx="4" ry="4" fill="url(#level-middle-fill)" stroke="#1f2933" stroke-width="1.4"/>

<line x1="-10" y1="36.0" x2="10" y2="36.0" stroke="#dfe4ea" stroke-width="1" stroke-dasharray="3 3"/>
<g class="specialized-repeat" data-kind="end" data-repeat-count="2"><circle cx="1137.0" cy="580.8" r="2.4" fill="#111827"/><circle cx="1137.0" cy="590.4" r="2.4" fill="#111827"/><line x1="1152.0" y1="566.0" x2="1152.0" y2="622.0" stroke="#111827" stroke-width="2.0"/><line x1="1148.0" y1="568.0" x2="1148.0" y2="620.0" stroke="#111827" stroke-width="1.2"/></g>

<text x="1137.0" y="636.0" text-anchor="middle" class="symbol-id" font-size="8" fill="#4b5563">repeat.end</text>
<text x="1137.0" y="558.0" text-anchor="middle" class="body-label" font-size="8" fill="#6b7280">torso</text>
<text x="1137.0" y="577.0" text-anchor="middle" class="direction-mark" font-size="10" fill="#6b7280">▲</text>
</g>
<g class="measure-header-band" data-measure="2"><rect x="63.0" y="418.0" width="56.0" height="30.0" rx="8" ry="8" fill="#eff6ff" stroke="#bfdbfe" stroke-width="1"/><line x1="119.0" y1="428.0" x2="113.0" y2="428.0" stroke="#93c5fd" stroke-width="1.2" stroke-dasharray="4 3"/></g>
<g class="measure-header-band" data-measure="1"><rect x="58.0" y="130.0" width="61.0" height="52.0" rx="8" ry="8" fill="#eff6ff" stroke="#bfdbfe" stroke-width="1"/><line x1="119.0" y1="140.0" x2="113.0" y2="140.0" stroke="#93c5fd" stroke-width="1.2" stroke-dasharray="4 3"/></g>
<g class="measure-header" data-symbol-id="music.time.3_4"><rect x="64.0" y="136.0" width="49.0" height="18" rx="4" ry="4" fill="#eef2ff" stroke="#c7d2fe" stroke-width="1"/><text x="88.5" y="149.0" text-anchor="middle" font-size="9" fill="#312e81">3/4</text></g>
<g class="measure-header" data-symbol-id="music.tempo.mark"><rect x="64.0" y="158.0" width="49.0" height="18" rx="4" ry="4" fill="#eef2ff" stroke="#c7d2fe" stroke-width="1"/><text x="88.5" y="171.0" text-anchor="middle" font-size="9" fill="#312e81">♩=126</text></g>
<g class="measure-header" data-symbol-id="music.cadence.mark"><rect x="69.0" y="424.0" width="44.0" height="18" rx="4" ry="4" fill="#eef2ff" stroke="#c7d2fe" stroke-width="1"/><text x="91.0" y="437.0" text-anchor="middle" font-size="9" fill="#312e81">cad</text></g>
<path class="repeat-span" d="M 1105.0 130.0 L 1105.0 698.0 M 1105.0 130.0 L 1114.0 130.0 M 1105.0 698.0 L 1114.0 698.0" fill="none" stroke="#475569" stroke-width="1.4"/>
<path class="attachment-line" data-route="curve" d="M 1120.0 162.0 C 825.0 162.0, 825.0 162.0, 530.0 162.0" fill="none" stroke="#94a3b8" stroke-width="1.2" stroke-dasharray="3 3"/>
<path class="attachment-line" data-route="dogleg" d="M 1380.0 234.0 L 1380.0 216.0 L 548.0 216.0 L 548.0 150.0 L 530.0 150.0 L 530.0 162.0" fill="none" stroke="#94a3b8" stroke-width="1.2" stroke-dasharray="3 3"/>
<path class="attachment-line" data-route="curve" d="M 1120.0 594.0 C 851.0 594.0, 851.0 594.0, 582.0 594.0" fill="none" stroke="#94a3b8" stroke-width="1.2" stroke-dasharray="3 3"/>
</svg>
