<svg xmlns="http://www.w3.org/2000/svg" width="1678" height="454" viewBox="0 0 1678 454">
<rect x="0" y="0" width="1678" height="454" fill="#f8fafc"/>
<defs>
  <pattern id="level-middle-fill" patternUnits="userSpaceOnUse" width="8" height="8">
    <rect width="8" height="8" fill="#ffffff"/>
    <rect width="8" height="4" fill="#8f9bb3"/>
  </pattern>
</defs>
<text x="28" y="34" font-size="24" font-weight="700" fill="#111827">Untitled</text>
<text x="28" y="56" font-size="11" fill="#6b7280">Laban staff engraving preview</text>
<rect x="18.0" y="112" width="1642.0" height="316" fill="#ffffff" stroke="#d0d7de" stroke-width="1"/>
<rect x="18.0" y="126.0" width="1642.0" height="288.0" fill="#fbfdff"/>
<line x1="18.0" y1="126.0" x2="1660" y2="126.0" stroke="#94a3b8" stroke-width="1.4"/>
<text x="22.0" y="142.0" text-anchor="end" font-size="10" fill="#64748b">M1</text>
<line x1="18.0" y1="198.0" x2="1660" y2="198.0" stroke="#cbd5e1" stroke-width="1" stroke-dasharray="4 4"/>
<text x="22.0" y="202.0" text-anchor="end" font-size="9" fill="#94a3b8">2</text>
<line x1="18.0" y1="270.0" x2="1660" y2="270.0" stroke="#cbd5e1" stroke-width="1" stroke-dasharray="4 4"/>
<text x="22.0" y="274.0" text-anchor="end" font-size="9" fill="#94a3b8">3</text>
<line x1="18.0" y1="342.0" x2="1660" y2="342.0" stroke="#cbd5e1" stroke-width="1" stroke-dasharray="4 4"/>
<text x="22.0" y="346.0" text-anchor="end" font-size="9" fill="#94a3b8">4</text>
<line x1="18.0" y1="414.0" x2="1660" y2="414.0" stroke="#94a3b8" stroke-width="1.4"/>
<line x1="54.0" y1="112" x2="54.0" y2="428.0" stroke="#e5e7eb" stroke-width="1"/>
<text x="54.0" y="104.0" text-anchor="middle" font-size="9" fill="#475569">Left Arm</text>
<line x1="106.0" y1="112" x2="106.0" y2="428.0" stroke="#e5e7eb" stroke-width="1"/>
<text x="106.0" y="104.0" text-anchor="middle" font-size="9" fill="#475569">Left Leg</text>
<line x1="158.0" y1="112" x2="158.0" y2="428.0" stroke="#e5e7eb" stroke-width="1"/>
<text x="158.0" y="104.0" text-anchor="middle" font-size="9" fill="#475569">Torso</text>
<line x1="210.0" y1="112" x2="210.0" y2="428.0" stroke="#e5e7eb" stroke-width="1"/>
<text x="210.0" y="104.0" text-anchor="middle" font-size="9" fill="#475569">Right Leg</text>
<line x1="262.0" y1="112" x2="262.0" y2="428.0" stroke="#e5e7eb" stroke-width="1"/>
<text x="262.0" y="104.0" text-anchor="middle" font-size="9" fill="#475569">Right Arm</text>
<line x1="314.0" y1="112" x2="314.0" y2="428.0" stroke="#e5e7eb" stroke-width="1"/>
<text x="314.0" y="104.0" text-anchor="middle" font-size="9" fill="#475569">Support</text>
<line x1="366.0" y1="112" x2="366.0" y2="428.0" stroke="#e5e7eb" stroke-width="1"/>
<text x="366.0" y="104.0" text-anchor="middle" font-size="9" fill="#475569">Direction</text>
<line x1="418.0" y1="112" x2="418.0" y2="428.0" stroke="#e5e7eb" stroke-width="1"/>
<text x="418.0" y="104.0" text-anchor="middle" font-size="9" fill="#475569">Path</text>
<line x1="470.0" y1="112" x2="470.0" y2="428.0" stroke="#e5e7eb" stroke-width="1"/>
<text x="470.0" y="104.0" text-anchor="middle" font-size="9" fill="#475569">Bow</text>
<line x1="522.0" y1="112" x2="522.0" y2="428.0" stroke="#e5e7eb" stroke-width="1"/>
<text x="522.0" y="104.0" text-anchor="middle" font-size="9" fill="#475569">Pin</text>
<line x1="574.0" y1="112" x2="574.0" y2="428.0" stroke="#e5e7eb" stroke-width="1"/>
<text x="574.0" y="104.0" text-anchor="middle" font-size="9" fill="#475569">Gesture</text>
<line x1="626.0" y1="112" x2="626.0" y2="428.0" stroke="#e5e7eb" stroke-width="1"/>
<text x="626.0" y="104.0" text-anchor="middle" font-size="9" fill="#475569">Body</text>
<line x1="678.0" y1="112" x2="678.0" y2="428.0" stroke="#e5e7eb" stroke-width="1"/>
<text x="678.0" y="104.0" text-anchor="middle" font-size="9" fill="#475569">Flexion</text>
<line x1="730.0" y1="112" x2="730.0" y2="428.0" stroke="#e5e7eb" stroke-width="1"/>
<text x="730.0" y="104.0" text-anchor="middle" font-size="9" fill="#475569">Foothook</text>
<line x1="782.0" y1="112" x2="782.0" y2="428.0" stroke="#e5e7eb" stroke-width="1"/>
<text x="782.0" y="104.0" text-anchor="middle" font-size="9" fill="#475569">Digit</text>
<line x1="834.0" y1="112" x2="834.0" y2="428.0" stroke="#e5e7eb" stroke-width="1"/>
<text x="834.0" y="104.0" text-anchor="middle" font-size="9" fill="#475569">Turn</text>
<line x1="886.0" y1="112" x2="886.0" y2="428.0" stroke="#e5e7eb" stroke-width="1"/>
<text x="886.0" y="104.0" text-anchor="middle" font-size="9" fill="#475569">Travel</text>
<line x1="938.0" y1="112" x2="938.0" y2="428.0" stroke="#e5e7eb" stroke-width="1"/>
<text x="938.0" y="104.0" text-anchor="middle" font-size="9" fill="#475569">Jump</text>
<line x1="990.0" y1="112" x2="990.0" y2="428.0" stroke="#e5e7eb" stroke-width="1"/>
<text x="990.0" y="104.0" text-anchor="middle" font-size="9" fill="#475569">Floor</text>
<line x1="1042.0" y1="112" x2="1042.0" y2="428.0" stroke="#e5e7eb" stroke-width="1"/>
<text x="1042.0" y="104.0" text-anchor="middle" font-size="9" fill="#475569">Repeat</text>
<line x1="1094.0" y1="112" x2="1094.0" y2="428.0" stroke="#e5e7eb" stroke-width="1"/>
<text x="1094.0" y="104.0" text-anchor="middle" font-size="9" fill="#475569">Dynamic</text>
<line x1="1146.0" y1="112" x2="1146.0" y2="428.0" stroke="#e5e7eb" stroke-width="1"/>
<text x="1146.0" y="104.0" text-anchor="middle" font-size="9" fill="#475569">Adlib</text>
<line x1="1198.0" y1="112" x2="1198.0" y2="428.0" stroke="#e5e7eb" stroke-width="1"/>
<text x="1198.0" y="104.0" text-anchor="middle" font-size="9" fill="#475569">Music</text>
<line x1="1250.0" y1="112" x2="1250.0" y2="428.0" stroke="#e5e7eb" stroke-width="1"/>
<text x="1250.0" y="104.0" text-anchor="middle" font-size="9" fill="#475569">Motif</text>
<line x1="1302.0" y1="112" x2="1302.0" y2="428.0" stroke="#e5e7eb" stroke-width="1"/>
<text x="1302.0" y="104.0" text-anchor="middle" font-size="9" fill="#475569">Surface</text>
<line x1="1354.0" y1="112" x2="1354.0" y2="428.0" stroke="#e5e7eb" stroke-width="1"/>
<text x="1354.0" y="104.0" text-anchor="middle" font-size="9" fill="#475569">Space</text>
<line x1="1406.0" y1="112" x2="1406.0" y2="428.0" stroke="#e5e7eb" stroke-width="1"/>
<text x="1406.0" y="104.0" text-anchor="middle" font-size="9" fill="#475569">Separator</text>
<line x1="1458.0" y1="112" x2="1458.0" y2="428.0" stroke="#e5e7eb" stroke-width="1"/>
<text x="1458.0" y="104.0" text-anchor="middle" font-size="9" fill="#475569">Quality</text>
<line x1="1510.0" y1="112" x2="1510.0" y2="428.0" stroke="#e5e7eb" stroke-width="1"/>
<text x="1510.0" y="104.0" text-anchor="middle" font-size="9" fill="#475569">Level</text>
<line x1="1562.0" y1="112" x2="1562.0" y2="428.0" stroke="#e5e7eb" stroke-width="1"/>
<text x="1562.0" y="104.0" text-anchor="middle" font-size="9" fill="#475569">Timing</text>
<g class="symbol-block level-middle" data-symbol-id="support.step">
<rect x="296.0" y="132.0" width="36.0" height="60.0" rx="4" ry="4" fill="url(#level-middle-fill)" stroke="#1f2933" stroke-width="1.4"/>

<line x1="-10" y1="36.0" x2="10" y2="36.0" stroke="#dfe4ea" stroke-width="1" stroke-dasharray="3 3"/>
<text x="314.0" y="168.0" text-anchor="middle" font-size="20" fill="#1f2933">▮</text>

<text x="314.0" y="204.0" text-anchor="middle" class="symbol-id" font-size="8" fill="#4b5563">support.step</text>
<text x="314.0" y="126.0" text-anchor="middle" class="body-label" font-size="8" fill="#6b7280">right leg</text>
<text x="314.0" y="145.0" text-anchor="middle" class="direction-mark" font-size="10" fill="#6b7280">▲</text>
</g>
<g class="symbol-block level-middle" data-symbol-id="turn.pivot">
<rect x="817.0" y="204.0" width="34.0" height="60.0" rx="4" ry="4" fill="url(#level-middle-fill)" stroke="#1f2933" stroke-width="1.4"/>

<line x1="-10" y1="36.0" x2="10" y2="36.0" stroke="#dfe4ea" stroke-width="1" stroke-dasharray="3 3"/>
<g class="specialized-turn" transform="rotate(0.0 834.0 234.0)"><path d="M 821.0 234.0 A 13.0 26.0 0 1 1 847.0 234.0" fill="none" stroke="#111827" stroke-width="1.8"/><polygon points="854.0,234.0 846.0,229.0 846.0,239.0" fill="#111827"/></g>

<text x="834.0" y="276.0" text-anchor="middle" class="symbol-id" font-size="8" fill="#4b5563">turn.pivot</text>
<text x="834.0" y="198.0" text-anchor="middle" class="body-label" font-size="8" fill="#6b7280">right leg</text>
<text x="834.0" y="217.0" text-anchor="middle" class="direction-mark" font-size="10" fill="#6b7280">▶</text>
</g>
</svg>